<?xml version="1.0" standalone="no"?>
<!DOCTYPE svg PUBLIC "-//W3C//DTD SVG 20010904//EN"
 "http://www.w3.org/TR/2001/REC-SVG-20010904/DTD/svg10.dtd">
<svg version="1.0" xmlns="http://www.w3.org/2000/svg"
 width="16.000000pt" height="16.000000pt" viewBox="0 0 16.000000 16.000000"
 preserveAspectRatio="xMidYMid meet">
<metadata>
Created by potrace 1.11, written by Peter Selinger 2001-2013
</metadata>
<g transform="translate(0.000000,16.000000) scale(0.006154,-0.006154)"
fill="#000000" stroke="none">
<path d="M965 2472 c-27 -70 -50 -129 -50 -132 -1 -3 -7 -18 -14 -35 -6 -16
-50 -129 -97 -250 -47 -121 -92 -233 -99 -250 -7 -16 -47 -120 -89 -230 -43
-110 -82 -209 -87 -220 -9 -21 -122 -309 -215 -550 -30 -77 -58 -149 -63 -160
-5 -11 -62 -155 -126 -320 -65 -165 -120 -306 -122 -312 -4 -10 50 -13 249
-13 l254 0 43 118 c24 64 63 167 86 227 23 61 57 148 75 195 17 47 36 89 41
94 6 7 935 13 1050 7 11 -1 38 -57 89 -188 40 -104 78 -201 85 -218 7 -16 30
-75 52 -130 l39 -100 268 -3 c213 -2 267 0 263 10 -10 24 -199 503 -252 638
-29 74 -126 319 -215 545 -89 226 -173 439 -187 475 -14 36 -31 79 -38 95 -7
17 -45 113 -85 215 -39 102 -78 199 -85 215 -7 17 -46 114 -86 218 l-74 187
-280 0 -280 0 -50 -128z m372 -594 c29 -73 113 -290 187 -481 75 -191 136
-349 136 -351 0 -2 -169 -3 -375 -2 -206 1 -375 4 -375 8 1 10 9 36 20 63 5
11 36 94 70 185 34 91 77 203 95 250 26 68 94 246 166 438 5 12 12 22 17 22 5
0 31 -60 59 -132z"/>
</g>
</svg>
