<svg id="Layer_1" data-name="Layer 1" xmlns="http://www.w3.org/2000/svg" viewBox="0 0 100 100"><title>about-1</title><path d="M58.628,92.418a37.928,37.928,0,0,1-10.79,1.557,37.449,37.449,0,0,1-23.173-7.916c-.237-.184-.465-.382-.7-.573l11.374-.044L18.612,57.024,2,85.571l15.962-.062.883.85a42.079,42.079,0,0,0,3.322,2.87A41.484,41.484,0,0,0,47.837,98a42,42,0,0,0,11.95-1.726c.887-.262,1.78-.56,2.657-.886l-1.419-3.77C60.234,91.912,59.428,92.181,58.628,92.418Zm-40-27.381L28.29,81.444l-19.25.075Z"/><path d="M48.972,3.473a14.16,14.16,0,0,0-14.183,13.78A41.3,41.3,0,0,0,6.129,56.591h4.054A37.379,37.379,0,0,1,35.307,21.352,14.178,14.178,0,1,0,48.972,3.473Zm0,24.17A10.073,10.073,0,1,1,59.117,17.571,10.121,10.121,0,0,1,48.972,27.643Z"/><path d="M93.935,61.089l-4.654.006a41.742,41.742,0,0,0,.264-4.5A41.282,41.282,0,0,0,75.153,25.3L72.5,28.338A37.274,37.274,0,0,1,85.491,56.591a37.663,37.663,0,0,1-.282,4.511l-16.654.023L68.7,86.6l25.379-.036Zm-21.2,21.48-.1-17.425L89.9,65.12,90,82.544Z"/></svg>