<svg id="Layer_1" data-name="Layer 1" xmlns="http://www.w3.org/2000/svg" viewBox="0 0 100 100"><title>about-1</title><path d="M65.3,33.7,43.484,44.218l10.725,22L76.02,55.707ZM48.663,46.015l14.844-7.156L70.841,53.91,56,61.066Z"/><polygon points="12.538 33.005 2 33.005 2 36.873 8.653 36.873 8.41 92.038 15.402 98 17.912 95.057 12.285 90.26 12.538 33.005"/><polygon points="90.037 33.005 79.499 33.005 79.752 90.26 74.125 95.057 76.635 98 83.627 92.038 83.384 36.873 90.037 36.873 90.037 33.005"/><path d="M46.817,95l.015-31.63L19.3,79.044Zm-3.865-6.712L27.063,79.074l15.9-9.051Z"/><path d="M32.888,41.095A13.547,13.547,0,1,0,19.34,27.547,13.563,13.563,0,0,0,32.888,41.095Zm0-23.227a9.679,9.679,0,1,1-9.679,9.679A9.691,9.691,0,0,1,32.888,17.868Z"/></svg>