<svg id="Layer_1" data-name="Layer 1" xmlns="http://www.w3.org/2000/svg" viewBox="0 0 100 100"><title>about-1</title><polygon points="2.097 20.308 2.097 41.989 20.233 41.989 20.233 58.67 24.013 58.67 24.013 38.209 5.877 38.209 5.877 24.088 39.049 24.088 39.049 75.76 20.716 75.76 20.716 79.54 42.83 79.54 42.83 42.695 62.189 42.695 62.189 38.915 42.83 38.915 42.83 24.088 76.002 24.088 76.002 61.282 79.782 61.282 79.782 20.308 2.097 20.308"/><polygon points="60.938 58.771 57.158 58.771 57.158 79.155 76.002 79.155 76.002 94.205 5.78 93.931 5.78 58.52 2 58.52 2 97.696 79.782 98 79.782 75.375 60.938 75.375 60.938 58.771"/></svg>