<svg id="Layer_1" data-name="Layer 1" xmlns="http://www.w3.org/2000/svg" viewBox="0 0 74 22"><title>logo</title><path d="M14.459,7.621V20.9H11.073V19.291h-.066a4.737,4.737,0,0,1-3.97,1.832,6.525,6.525,0,0,1-2.542-.491,5.9,5.9,0,0,1-2.018-1.374,6.25,6.25,0,0,1-1.321-2.164A7.935,7.935,0,0,1,.678,14.3a7.912,7.912,0,0,1,.478-2.775A6.574,6.574,0,0,1,2.463,9.334,6.06,6.06,0,0,1,6.931,7.4a4.918,4.918,0,0,1,3.917,1.726H10.9v-1.5Zm-4.381,9.307a3.619,3.619,0,0,0,.969-2.615,3.837,3.837,0,0,0-.949-2.655A3.076,3.076,0,0,0,7.7,10.6a3.229,3.229,0,0,0-2.436,1.022,3.741,3.741,0,0,0-.976,2.7,3.662,3.662,0,0,0,.949,2.615,3.212,3.212,0,0,0,2.45,1.009A3.183,3.183,0,0,0,10.078,16.928Z"/><path d="M23.988,7.409v3.9q-.531-.04-.943-.04a3.222,3.222,0,0,0-2.489.969,3.531,3.531,0,0,0-.9,2.5V20.9H16.1V7.621H19.66V9.573h.04A5.383,5.383,0,0,1,21.492,7.96,4.563,4.563,0,0,1,23.71,7.4,1.966,1.966,0,0,1,23.988,7.409Z"/><path d="M27.747,20a4.765,4.765,0,0,1-1.016-3.3V10.569H25.165V7.621h1.567V3.28l3.558-.385V7.621H33.9v2.947H30.29v5.643a2.383,2.383,0,0,0,.272,1.288.994.994,0,0,0,.9.412,3.689,3.689,0,0,0,1.673-.465l.916,2.841a7.2,7.2,0,0,1-1.527.624,7.686,7.686,0,0,1-1.991.212A3.563,3.563,0,0,1,27.747,20Z"/><path d="M36.5,5.457a2.15,2.15,0,0,1-.8-.79,2.125,2.125,0,0,1-.292-1.1,2.072,2.072,0,0,1,.644-1.527,2.22,2.22,0,0,1,3.113,0,2.062,2.062,0,0,1,.651,1.527,2.077,2.077,0,0,1-.651,1.54,2.142,2.142,0,0,1-1.553.637A2.2,2.2,0,0,1,36.5,5.457Zm-.67,2.164H39.39V20.9H35.832Z"/><path d="M44.527,20.267a6.167,6.167,0,0,1-2.436-2.423,7.147,7.147,0,0,1-.883-3.571,7.132,7.132,0,0,1,.89-3.585,6.188,6.188,0,0,1,2.483-2.43A7.487,7.487,0,0,1,48.2,7.4a7.821,7.821,0,0,1,3.147.657,6.376,6.376,0,0,1,2.5,1.892l-2.4,2.071A3.9,3.9,0,0,0,48.35,10.6a3.779,3.779,0,0,0-1.447.272,3.225,3.225,0,0,0-1.122.75,3.321,3.321,0,0,0-.71,1.155,4.19,4.19,0,0,0-.252,1.474,3.659,3.659,0,0,0,.989,2.655,3.415,3.415,0,0,0,2.569,1.022,4.081,4.081,0,0,0,3.08-1.341L53.9,18.734a6.682,6.682,0,0,1-2.436,1.726,8.493,8.493,0,0,1-3.432.664A7.138,7.138,0,0,1,44.527,20.267Z"/><path d="M55.291.877H58.85V20.9H55.291Z"/><path d="M73.229,15.414H63.922a3.339,3.339,0,0,0,1.215,1.859,3.561,3.561,0,0,0,2.171.69,3.9,3.9,0,0,0,3.173-1.5l2.31,2.151a6.422,6.422,0,0,1-2.363,1.826,7.871,7.871,0,0,1-3.372.684,7.2,7.2,0,0,1-3.492-.843,6.143,6.143,0,0,1-2.45-2.423,7.19,7.19,0,0,1-.9-3.611,7.488,7.488,0,0,1,.5-2.768A6.505,6.505,0,0,1,62.1,9.3a6.141,6.141,0,0,1,2.091-1.4A6.783,6.783,0,0,1,66.8,7.4a6.633,6.633,0,0,1,3.412.87,5.946,5.946,0,0,1,2.3,2.4,7.32,7.32,0,0,1,.81,3.472A5.643,5.643,0,0,1,73.229,15.414Zm-8.2-4.288a3.093,3.093,0,0,0-1.1,1.726h5.855a3.2,3.2,0,0,0-1.009-1.706,2.779,2.779,0,0,0-1.859-.617A3.046,3.046,0,0,0,65.031,11.126Z"/></svg>