<svg id="Layer_1" data-name="Layer 1" xmlns="http://www.w3.org/2000/svg" viewBox="0 0 274 45"><defs><style>.cls-1{fill:#1a1a1a;}.cls-2{fill:#00ffa7;}</style></defs><title>logo-society</title><path class="cls-1" d="M23.987,12.481V34.82h-5.7v-2.7h-.111A7.973,7.973,0,0,1,11.5,35.2a10.961,10.961,0,0,1-4.277-.827,9.918,9.918,0,0,1-3.4-2.312A10.506,10.506,0,0,1,1.6,28.42a13.35,13.35,0,0,1-.8-4.7,13.314,13.314,0,0,1,.8-4.669,11.063,11.063,0,0,1,2.2-3.686A10.194,10.194,0,0,1,11.32,12.1a8.275,8.275,0,0,1,6.59,2.9H18V12.481ZM16.615,28.14a6.087,6.087,0,0,0,1.631-4.4,6.458,6.458,0,0,0-1.6-4.468,5.176,5.176,0,0,0-4.032-1.787,5.432,5.432,0,0,0-4.1,1.72A6.294,6.294,0,0,0,6.875,23.74a6.159,6.159,0,0,0,1.6,4.4,5.4,5.4,0,0,0,4.121,1.7A5.351,5.351,0,0,0,16.615,28.14Z"/><path class="cls-1" d="M40.656,12.124v6.567q-.894-.067-1.586-.067a5.421,5.421,0,0,0-4.188,1.631,5.943,5.943,0,0,0-1.508,4.2V34.82H27.387V12.481h5.987v3.284h.067a9.057,9.057,0,0,1,3.016-2.714,7.672,7.672,0,0,1,3.73-.95A3.332,3.332,0,0,1,40.656,12.124Z"/><path class="cls-1" d="M46.822,33.312a8.015,8.015,0,0,1-1.709-5.551V17.44H42.477V12.481h2.636v-7.3L51.1,4.529v7.953h6.076V17.44H51.1v9.494a4.017,4.017,0,0,0,.458,2.167,1.673,1.673,0,0,0,1.508.692,6.2,6.2,0,0,0,2.814-.782l1.542,4.781a12.153,12.153,0,0,1-2.569,1.05A12.934,12.934,0,0,1,51.5,35.2,6,6,0,0,1,46.822,33.312Z"/><path class="cls-1" d="M61.99,8.84a3.626,3.626,0,0,1-1.352-1.329,3.581,3.581,0,0,1-.491-1.843A3.487,3.487,0,0,1,61.231,3.1a3.735,3.735,0,0,1,5.238,0,3.469,3.469,0,0,1,1.095,2.569,3.494,3.494,0,0,1-1.095,2.591,3.6,3.6,0,0,1-2.614,1.072A3.7,3.7,0,0,1,61.99,8.84Zm-1.128,3.641h5.987V34.82H60.862Z"/><path class="cls-1" d="M76.4,33.76a10.386,10.386,0,0,1-4.1-4.077,12.03,12.03,0,0,1-1.485-6.009,12,12,0,0,1,1.5-6.032,10.408,10.408,0,0,1,4.177-4.088,12.6,12.6,0,0,1,6.1-1.452,13.156,13.156,0,0,1,5.294,1.106,10.732,10.732,0,0,1,4.2,3.183l-4.043,3.485a6.569,6.569,0,0,0-5.205-2.39,6.359,6.359,0,0,0-2.435.458,5.428,5.428,0,0,0-1.888,1.262,5.587,5.587,0,0,0-1.195,1.943,7.042,7.042,0,0,0-.425,2.479A6.153,6.153,0,0,0,78.555,28.1a5.745,5.745,0,0,0,4.323,1.721A6.866,6.866,0,0,0,88.06,27.56l4.11,3.62a11.247,11.247,0,0,1-4.1,2.9A14.281,14.281,0,0,1,82.3,35.2,12.015,12.015,0,0,1,76.4,33.76Z"/><path class="cls-1" d="M95.418,1.133h5.987V34.82H95.418Z"/><path class="cls-1" d="M126.467,25.594h-15.66a5.619,5.619,0,0,0,2.044,3.127,5.982,5.982,0,0,0,3.652,1.161,6.555,6.555,0,0,0,5.339-2.523l3.887,3.619a10.81,10.81,0,0,1-3.976,3.071,13.252,13.252,0,0,1-5.674,1.15,12.118,12.118,0,0,1-5.875-1.419,10.332,10.332,0,0,1-4.122-4.076,12.1,12.1,0,0,1-1.508-6.077,12.6,12.6,0,0,1,.849-4.658,10.948,10.948,0,0,1,2.313-3.664,10.332,10.332,0,0,1,3.518-2.356,11.413,11.413,0,0,1,4.4-.849,11.16,11.16,0,0,1,5.741,1.463,10,10,0,0,1,3.864,4.043,12.311,12.311,0,0,1,1.363,5.841A9.511,9.511,0,0,1,126.467,25.594Zm-13.794-7.215a5.2,5.2,0,0,0-1.843,2.9h9.852a5.38,5.38,0,0,0-1.7-2.871,4.673,4.673,0,0,0-3.127-1.039A5.127,5.127,0,0,0,112.673,18.379Z"/><path class="cls-2" d="M128.594,31.916l2.9-4.132a8.861,8.861,0,0,0,6.188,2.614,3.456,3.456,0,0,0,2.011-.515,1.567,1.567,0,0,0,.737-1.34,1.176,1.176,0,0,0-.447-.9,4.63,4.63,0,0,0-1.239-.726q-.794-.335-2.379-.849-1.006-.335-1.8-.67a17.059,17.059,0,0,1-1.62-.793,7,7,0,0,1-1.418-1.016,7.946,7.946,0,0,1-1.072-1.251,5.162,5.162,0,0,1-.726-1.586,7.322,7.322,0,0,1-.246-1.944,6.021,6.021,0,0,1,1.061-3.518,6.882,6.882,0,0,1,2.882-2.357,9.8,9.8,0,0,1,4.1-.827,12.526,12.526,0,0,1,8.176,2.815l-2.9,4.378a8.93,8.93,0,0,0-2.647-1.776,6.877,6.877,0,0,0-2.692-.592,2.729,2.729,0,0,0-1.519.436,1.4,1.4,0,0,0-.67,1.24,1.491,1.491,0,0,0,.793,1.206,13.252,13.252,0,0,0,2.558,1.206,29.476,29.476,0,0,1,4.959,2.167,5.271,5.271,0,0,1,2.591,3.574,7.659,7.659,0,0,1,.134,1.5,6.328,6.328,0,0,1-2.223,5.026q-2.223,1.92-6.445,1.921A13.216,13.216,0,0,1,128.594,31.916Z"/><path class="cls-2" d="M156.611,34.641a11.184,11.184,0,0,1-3.295-1.586,11.065,11.065,0,0,1-2.49-2.446,10.544,10.544,0,0,1-1.6-3.183,12.592,12.592,0,0,1-.547-3.753,12.31,12.31,0,0,1,.86-4.625,10.739,10.739,0,0,1,2.4-3.674,10.905,10.905,0,0,1,3.775-2.4,13.9,13.9,0,0,1,9.628-.022,11.094,11.094,0,0,1,3.775,2.356,10.591,10.591,0,0,1,2.446,3.664,12.3,12.3,0,0,1,.882,4.7,11.818,11.818,0,0,1-1.519,6.009,10.456,10.456,0,0,1-4.222,4.077,12.865,12.865,0,0,1-6.144,1.44A13.655,13.655,0,0,1,156.611,34.641ZM164.7,28.1a6.122,6.122,0,0,0,1.675-4.422,6.19,6.19,0,0,0-1.652-4.457,5.892,5.892,0,0,0-8.366.022,6.282,6.282,0,0,0-1.62,4.435,6.222,6.222,0,0,0,1.643,4.389,5.8,5.8,0,0,0,8.321.033Z"/><path class="cls-2" d="M180.693,33.76a10.386,10.386,0,0,1-4.1-4.077,12.03,12.03,0,0,1-1.485-6.009,12,12,0,0,1,1.5-6.032,10.412,10.412,0,0,1,4.178-4.088,12.6,12.6,0,0,1,6.1-1.452,13.16,13.16,0,0,1,5.295,1.106,10.73,10.73,0,0,1,4.2,3.183l-4.043,3.485a6.569,6.569,0,0,0-5.205-2.39,6.364,6.364,0,0,0-2.436.458,5.423,5.423,0,0,0-1.887,1.262,5.6,5.6,0,0,0-1.2,1.943,7.042,7.042,0,0,0-.425,2.479,6.153,6.153,0,0,0,1.664,4.467,5.746,5.746,0,0,0,4.323,1.721,6.862,6.862,0,0,0,5.182-2.256l4.111,3.62a11.249,11.249,0,0,1-4.1,2.9,14.281,14.281,0,0,1-5.774,1.117A12.015,12.015,0,0,1,180.693,33.76Z"/><path class="cls-2" d="M200.785,8.84a3.626,3.626,0,0,1-1.352-1.329,3.581,3.581,0,0,1-.491-1.843A3.489,3.489,0,0,1,200.025,3.1a3.735,3.735,0,0,1,5.238,0,3.468,3.468,0,0,1,1.1,2.569,3.493,3.493,0,0,1-1.1,2.591,3.6,3.6,0,0,1-2.613,1.072A3.7,3.7,0,0,1,200.785,8.84Zm-1.128,3.641h5.987V34.82h-5.987Z"/><path class="cls-2" d="M231.5,25.594h-15.66a5.619,5.619,0,0,0,2.044,3.127,5.986,5.986,0,0,0,3.653,1.161,6.556,6.556,0,0,0,5.338-2.523l3.888,3.619a10.812,10.812,0,0,1-3.977,3.071,13.246,13.246,0,0,1-5.674,1.15,12.123,12.123,0,0,1-5.876-1.419,10.34,10.34,0,0,1-4.121-4.076,12.1,12.1,0,0,1-1.508-6.077,12.591,12.591,0,0,1,.85-4.658,10.938,10.938,0,0,1,2.312-3.664,10.338,10.338,0,0,1,3.519-2.356,11.412,11.412,0,0,1,4.4-.849,11.158,11.158,0,0,1,5.741,1.463,10,10,0,0,1,3.864,4.043,12.317,12.317,0,0,1,1.363,5.841A9.541,9.541,0,0,1,231.5,25.594Zm-13.795-7.215a5.205,5.205,0,0,0-1.843,2.9h9.852a5.377,5.377,0,0,0-1.7-2.871,4.673,4.673,0,0,0-3.127-1.039A5.128,5.128,0,0,0,217.707,18.379Z"/><path class="cls-2" d="M237.741,33.312a8.015,8.015,0,0,1-1.709-5.551V17.44H233.4V12.481h2.636v-7.3l5.987-.648v7.953H248.1V17.44H242.02v9.494a4.018,4.018,0,0,0,.457,2.167,1.673,1.673,0,0,0,1.508.692,6.206,6.206,0,0,0,2.815-.782l1.541,4.781a12.147,12.147,0,0,1-2.569,1.05,12.924,12.924,0,0,1-3.35.357A6,6,0,0,1,237.741,33.312Z"/><path class="cls-2" d="M273.2,12.481l-12.04,31.386H255.04l3.977-10.432-8.936-20.954h6.255l5.473,13.828h.067l5.116-13.828Z"/></svg>