<svg id="Layer_1" data-name="Layer 1" xmlns="http://www.w3.org/2000/svg" viewBox="0 0 834 312"><defs><style>.cls-1{fill:#231f20;}</style></defs><title>luka</title><path class="cls-1" d="M746.274,85.537c-41.756,0-73.508,23.488-82.642,60.459l41.321,8.7c7.394-19.573,20.878-29.142,40.886-29.142,24.793,0,42.626,12.179,42.626,38.276V173.4H750.624c-56.979,0-94.821,26.967-94.821,71.768,0,43.5,28.707,66.549,67.418,66.549,30.012,0,52.63-10.874,67.853-32.187l4.349,28.707H833.7V172.094C833.7,114.244,804.559,85.537,746.274,85.537Zm42.191,130.487c0,17.833-5.655,31.317-17.4,41.321-11.309,9.569-24.793,14.354-40.016,14.354-17.833,0-27.4-10.874-27.4-26.532,0-20.878,17.4-33.927,45.236-33.927h39.581Z"/><path class="cls-1" d="M397.531,89.017H352.3v88.731c0,28.707-5.654,51.76-16.963,68.723C324.458,263.435,311.41,271.7,296.186,271.7c-22.618,0-33.927-13.484-33.927-40.016V89.017H217.024v157.02c0,41.756,25.662,65.679,64.374,65.679,29.142,0,55.24-14.789,70.9-40.886v37.406h45.235Z"/><polygon class="cls-1" points="0.299 308.235 179.501 308.235 179.501 263 48.144 263 48.144 3.765 0.299 3.765 0.299 308.235"/><polygon class="cls-1" points="453.176 0.285 453.176 308.344 498.429 308.344 498.429 239.311 513.772 222.445 583.274 308.344 640.711 308.344 543.258 190.012 635.057 89.051 577.619 89.051 498.429 176.506 498.429 0.285 453.176 0.285"/></svg>